<svg xmlns="http://www.w3.org/2000/svg" style="overflow: visible;" data-bbox="0 192 511.9999999999998 84.7406676581071" viewBox="0.48 192.54 511.52 83.66"><defs transform="matrix(0.8125, 0, 0, 0.8125, 48, 48)" data-uid="o_f5jmkh2gf_7"><linearGradient x1="48.25%" y1="0.02%" x2="51.75%" y2="99.98%" id="g_185601523_1" gradientUnits="objectBoundingBox" data-uid="o_f5jmkh2gf_43"><stop offset="0%" stop-color="rgb(79, 70, 229)" stop-opacity="1.00" data-uid="o_f5jmkh2gf_44"/><stop offset="100%" stop-color="rgb(0, 0, 0)" stop-opacity="0.90" data-uid="o_f5jmkh2gf_45"/></linearGradient><linearGradient x1="48.25%" y1="0.02%" x2="51.75%" y2="99.98%" id="g_211399637_3" gradientUnits="objectBoundingBox" data-uid="o_f5jmkh2gf_85"><stop offset="0%" stop-color="rgb(79, 70, 229)" stop-opacity="1.00" data-uid="o_f5jmkh2gf_86"/><stop offset="100%" stop-color="rgb(79, 70, 229)" stop-opacity="1" data-uid="o_f5jmkh2gf_87"/></linearGradient><linearGradient x1="48.25%" y1="0.02%" x2="51.75%" y2="99.98%" id="g_842192282_4" gradientUnits="objectBoundingBox" data-uid="o_f5jmkh2gf_126"><stop offset="0%" stop-color="rgb(33, 137, 219)" stop-opacity="1" data-uid="o_f5jmkh2gf_127"/><stop offset="100%" stop-color="rgb(79, 70, 229)" stop-opacity="1.00" data-uid="o_f5jmkh2gf_128"/></linearGradient></defs><g transform="matrix(1.7972099781036377, 0, 0, 2.0175979137420654, -241.99253845214844, -282.13470458984375)" data-uid="o_f5jmkh2gf_17" fill="url(#g_842192282_4)" stroke="none"><g transform="matrix(0.10671984404325485, 0, 0, 0.10671984404325485, 134.915771484375, 228.67987060546875)" fill="url(#g_842192282_4)" stroke="none" stroke-width="5" data-uid="o_f5jmkh2gf_18"><path d="M75.705 158.503c-2.88-0.508-5.815-0.765-8.723-0.765c-24.287 0-44.978 17.379-49.2 41.323L0.765 295.572 &#9;&#9;&#9;c-4.788 27.151 13.407 53.135 40.558 57.923c2.88 0.508 5.815 0.765 8.723 0.765c24.285 0 44.978-17.38 49.2-41.323l17.018-96.511 &#9;&#9;&#9;C121.05 189.274 102.856 163.291 75.705 158.503z" transform="matrix(1, 0, 0, 1, 0, 0)" fill="url(#g_842192282_4)" stroke="none" stroke-width="5" data-uid="o_f5jmkh2gf_19"/><path d="M215.176 114.187c-2.88-0.508-5.815-0.765-8.723-0.765c-24.286 0-44.978 17.379-49.199 41.323l-32.646 185.144 &#9;&#9;&#9;c-2.319 13.152 0.623 26.421 8.283 37.361c7.66 10.939 19.123 18.242 32.275 20.562c2.88 0.508 5.815 0.765 8.723 0.765 &#9;&#9;&#9;c24.286 0 44.978-17.38 49.2-41.323l32.646-185.144C260.522 144.958 242.327 118.975 215.176 114.187z" transform="matrix(1, 0, 0, 1, 0, 0)" fill="url(#g_842192282_4)" stroke="none" stroke-width="5" data-uid="o_f5jmkh2gf_20"/><path d="M386.922 83.046c-7.661-10.94-19.123-18.242-32.274-20.562c-2.881-0.508-5.817-0.766-8.726-0.766 &#9;&#9;&#9;c-24.285 0-44.976 17.379-49.198 41.324L245.845 391.59c-2.319 13.152 0.623 26.421 8.283 37.361 &#9;&#9;&#9;c7.661 10.939 19.123 18.242 32.274 20.562c2.88 0.508 5.815 0.766 8.725 0.766c24.287 0 44.977-17.38 49.199-41.324 &#9;&#9;&#9;l50.879-288.548C397.524 107.255 394.583 93.986 386.922 83.046z" transform="matrix(1, 0, 0, 1, 0, 0)" fill="url(#g_842192282_4)" stroke="none" stroke-width="5" data-uid="o_f5jmkh2gf_21"/><path d="M470.675 158.503c-2.88-0.508-5.815-0.765-8.723-0.765c-24.287 0-44.978 17.379-49.2 41.323l-17.018 96.511 &#9;&#9;&#9;c-4.788 27.151 13.407 53.135 40.558 57.923c2.88 0.508 5.815 0.765 8.723 0.765c24.285 0 44.978-17.38 49.2-41.323l17.018-96.511 &#9;&#9;&#9;C516.021 189.274 497.827 163.291 470.675 158.503z" transform="matrix(1, 0, 0, 1, 0, 0)" fill="url(#g_842192282_4)" stroke="none" stroke-width="5" data-uid="o_f5jmkh2gf_22"/></g><path text="Docrepub" fill="url(#g_842192282_4)" space="preserve" text-anchor="start" offset="0" font-scale="contain" font-size="48" font-family="Audiowide" transform="matrix(0.8576472401618958, 0, 0, 0.8576472401618958, 199.4252166748047, 266.8063659667969)" font-style="normal" font-weight="400" letter-spacing="0" data-fl-textpath="" data-uid="o_f5jmkh2gf_23" d="M 37.08-19.55L 37.08-14.06Q 37.08-10.99  36.01-8.41Q 34.95-5.84  33.07-3.97Q 31.2-2.11  28.62-1.05Q 26.04 0  23.02 0L 23.02 0L 6.56 0Q 5.91 0  5.34-0.23Q 4.78-0.47  4.37-0.88Q 3.96-1.29  3.73-1.85Q 3.49-2.41  3.49-3.07L 3.49-3.07L 3.49-30.54Q 3.49-31.17  3.73-31.73Q 3.96-32.3  4.37-32.72Q 4.78-33.14  5.34-33.38Q 5.91-33.61  6.56-33.61L 6.56-33.61L 23.02-33.61Q 26.04-33.61  28.62-32.55Q 31.2-31.5  33.07-29.64Q 34.95-27.77  36.01-25.18Q 37.08-22.59  37.08-19.55L 37.08-19.55ZM 30.98-14.06L 30.98-19.55Q 30.98-21.33  30.41-22.8Q 29.84-24.28  28.78-25.32Q 27.73-26.37  26.26-26.94Q 24.8-27.52  23.02-27.52L 23.02-27.52L 9.59-27.52L 9.59-6.09L 23.02-6.09Q 24.8-6.09  26.26-6.67Q 27.73-7.24  28.78-8.29Q 29.84-9.33  30.41-10.79Q 30.98-12.26  30.98-14.06L 30.98-14.06ZM 69.935625-16.8L 69.935625-8.55Q 69.935625-6.98  69.535625-5.73Q 69.145625-4.48  68.485625-3.53Q 67.825625-2.58  66.965625-1.91Q 66.095625-1.24  65.145625-0.82Q 64.195625-0.4  63.225625-0.2Q 62.245625000000004 0  61.385625000000005 0L 61.385625000000005 0L 50.395625 0Q 49.125625 0  47.625625-0.45Q 46.125625-0.89  44.845625-1.91Q 43.565625-2.93  42.715625-4.56Q 41.855625-6.19  41.855625-8.55L 41.855625-8.55L 41.855625-16.8Q 41.855625-19.15  42.715625-20.78Q 43.565625-22.41  44.845625-23.43Q 46.125625-24.45  47.625625-24.89Q 49.125625-25.34  50.395625-25.34L 50.395625-25.34L 61.385625000000005-25.34Q 63.725625-25.34  65.365625-24.49Q 67.005625-23.65  68.015625-22.37Q 69.025625-21.09  69.47562500000001-19.59Q 69.935625-18.09  69.935625-16.8L 69.935625-16.8ZM 63.845625-8.55L 63.845625-16.76Q 63.845625-18.02  63.215625-18.63Q 62.575625-19.24  61.385625000000005-19.24L 61.385625000000005-19.24L 50.435625-19.24Q 49.215625-19.24  48.585625-18.62Q 47.955625-18  47.955625-16.8L 47.955625-16.8L 47.955625-8.55Q 47.955625-7.36  48.585625-6.73Q 49.215625-6.09  50.435625-6.09L 50.435625-6.09L 61.385625000000005-6.09Q 62.625625-6.09  63.235625-6.73Q 63.845625-7.36  63.845625-8.55L 63.845625-8.55ZM 99.6578125-6.09L 99.6578125 0L 83.1378125 0Q 81.8678125 0  80.3678125-0.45Q 78.8678125-0.89  77.5878125-1.91Q 76.3078125-2.93  75.4578125-4.56Q 74.5978125-6.19  74.5978125-8.55L 74.5978125-8.55L 74.5978125-16.8Q 74.5978125-17.67  74.7978125-18.63Q 74.9978125-19.59  75.4178125-20.54Q 75.8478125-21.49  76.5078125-22.36Q 77.1778125-23.23  78.1278125-23.88Q 79.0778125-24.54  80.3178125-24.94Q 81.5578125-25.34  83.1378125-25.34L 83.1378125-25.34L 99.6578125-25.34L 99.6578125-19.24L 83.1378125-19.24Q 81.9378125-19.24  81.3178125-18.63Q 80.6978125-18.02  80.6978125-16.76L 80.6978125-16.76L 80.6978125-8.55Q 80.6978125-7.36  81.3278125-6.73Q 81.9578125-6.09  83.1778125-6.09L 83.1778125-6.09L 99.6578125-6.09ZM 126.8659375-25.34L 126.8659375-19.24L 113.1559375-19.24Q 111.9159375-19.24  111.2859375-18.62Q 110.6459375-18  110.6459375-16.8L 110.6459375-16.8L 110.6459375 0L 104.5559375 0L 104.5559375-16.8Q 104.5559375-18.38  104.9559375-19.62Q 105.3559375-20.86  106.0159375-21.81Q 106.6859375-22.76  107.5559375-23.43Q 108.4259375-24.09  109.3759375-24.52Q 110.3159375-24.94  111.29593750000001-25.14Q 112.2659375-25.34  113.1059375-25.34L 113.1059375-25.34L 126.8659375-25.34ZM 158.041875-16.95L 158.041875-16.95Q 158.041875-15.68  157.59187500000002-14.21Q 157.151875-12.75  156.151875-11.5Q 155.151875-10.24  153.551875-9.4Q 151.941875-8.55  149.651875-8.55L 149.651875-8.55L 138.651875-8.55L 138.651875-14.34L 149.651875-14.34Q 150.891875-14.34  151.571875-15.11Q 152.25187499999998-15.87  152.25187499999998-16.99L 152.25187499999998-16.99Q 152.25187499999998-18.19  151.491875-18.87Q 150.721875-19.55  149.651875-19.55L 149.651875-19.55L 138.651875-19.55Q 137.411875-19.55  136.731875-18.79Q 136.051875-18.02  136.051875-16.9L 136.051875-16.9L 136.051875-8.39Q 136.051875-7.17  136.811875-6.49Q 137.581875-5.81  138.701875-5.81L 138.701875-5.81L 149.651875-5.81L 149.651875 0L 138.651875 0Q 137.391875 0  135.921875-0.45Q 134.461875-0.89  133.211875-1.89Q 131.951875-2.88  131.111875-4.49Q 130.261875-6.09  130.261875-8.39L 130.261875-8.39L 130.261875-16.95Q 130.261875-18.21  130.711875-19.68Q 131.151875-21.14  132.151875-22.39Q 133.151875-23.65  134.751875-24.49Q 136.361875-25.34  138.651875-25.34L 138.651875-25.34L 149.651875-25.34Q 150.911875-25.34  152.381875-24.89Q 153.84187500000002-24.45  155.101875-23.45Q 156.351875-22.45  157.191875-20.85Q 158.041875-19.24  158.041875-16.95ZM 190.08125-16.8L 190.08125-8.55Q 190.08125-6.98  189.68125-5.73Q 189.28125-4.48  188.62125-3.53Q 187.97125-2.58  187.10125-1.91Q 186.23125-1.24  185.28125-0.82Q 184.33125-0.4  183.37125-0.2Q 182.41125 0  181.55125 0L 181.55125 0L 170.55125 0L 170.55125-6.09L 181.55125-6.09Q 182.76125-6.09  183.37125-6.73Q 183.98125-7.36  183.98125-8.55L 183.98125-8.55L 183.98125-16.76Q 183.98125-18.02  183.36124999999998-18.63Q 182.74125-19.24  181.55125-19.24L 181.55125-19.24L 170.60125-19.24Q 169.36125-19.24  168.73125-18.62Q 168.09125-18  168.09125-16.8L 168.09125-16.8L 168.09125 7.92L 162.00125 7.92L 162.00125-16.8Q 162.00125-18.38  162.40125-19.62Q 162.80125-20.86  163.46125-21.81Q 164.13125-22.76  165.00125-23.43Q 165.87125-24.09  166.82125-24.52Q 167.76125-24.94  168.74125-25.14Q 169.71125-25.34  170.55125-25.34L 170.55125-25.34L 181.55125-25.34Q 183.12125-25.34  184.36124999999998-24.94Q 185.60125-24.54  186.55125-23.88Q 187.50125-23.23  188.17125-22.36Q 188.83125-21.49  189.26125-20.54Q 189.68125-19.59  189.88125-18.63Q 190.08125-17.67  190.08125-16.8L 190.08125-16.8ZM 222.981875-25.34L 222.981875-3.07Q 222.981875-2.41  222.75187499999998-1.85Q 222.511875-1.29  222.101875-0.88Q 221.691875-0.47  221.141875-0.23Q 220.59187500000002 0  219.961875 0L 219.961875 0L 206.181875 0Q 205.051875 0  203.781875-0.26Q 202.501875-0.52  201.261875-1.09Q 200.011875-1.66  198.851875-2.54Q 197.691875-3.42  196.831875-4.68Q 195.961875-5.93  195.431875-7.57Q 194.901875-9.21  194.901875-11.27L 194.901875-11.27L 194.901875-25.34L 201.001875-25.34L 201.001875-11.27Q 201.001875-10.08  201.411875-9.13Q 201.821875-8.18  202.521875-7.5Q 203.221875-6.82  204.171875-6.46Q 205.121875-6.09  206.221875-6.09L 206.221875-6.09L 216.891875-6.09L 216.891875-25.34L 222.981875-25.34ZM 256.64375-16.8L 256.64375-8.55Q 256.64375-7.69  256.44375-6.73Q 256.24375-5.77  255.82375-4.82Q 255.39375-3.87  254.73375-3Q 254.06375-2.13  253.11375-1.46Q 252.16375-0.8  250.92374999999998-0.4Q 249.68375 0  248.11375 0L 248.11375 0L 237.11375 0Q 236.25375 0  235.29375-0.2Q 234.32375-0.4  233.38375-0.82Q 232.43375-1.24  231.56375-1.91Q 230.69375-2.58  230.02375-3.53Q 229.36375-4.48  228.96375-5.73Q 228.56375-6.98  228.56375-8.55L 228.56375-8.55L 228.56375-36.05L 234.65375-36.05L 234.65375-8.55Q 234.65375-7.43  235.36375-6.76Q 236.06375-6.09  237.11375-6.09L 237.11375-6.09L 248.11375-6.09Q 249.25375-6.09  249.90375-6.77Q 250.54375-7.45  250.54375-8.55L 250.54375-8.55L 250.54375-16.8Q 250.54375-17.95  249.86375-18.6Q 249.18375-19.24  248.11375-19.24L 248.11375-19.24L 237.11375-19.24L 237.11375-25.34L 248.11375-25.34Q 248.97375-25.34  249.93375-25.14Q 250.89375-24.94  251.84375-24.52Q 252.79375-24.09  253.66375-23.43Q 254.53375-22.76  255.18375-21.81Q 255.84375-20.86  256.24375-19.62Q 256.64375-18.38  256.64375-16.8L 256.64375-16.8Z"/></g></svg>