<?xml version="1.0" encoding="UTF-8" standalone="no" ?>
<!DOCTYPE svg PUBLIC "-//W3C//DTD SVG 1.1//EN" "http://www.w3.org/Graphics/SVG/1.1/DTD/svg11.dtd">
<svg xmlns="http://www.w3.org/2000/svg" xmlns:xlink="http://www.w3.org/1999/xlink" version="1.1" width="1200" height="628" viewBox="0 0 1200 628" xml:space="preserve">
<desc>Created with Fabric.js 5.2.4</desc>
<defs>
</defs>
<g transform="matrix(1 0 0 1 600 314)" id="f153cd63-864c-41a1-a647-68af6f8a57f0"  >
<rect style="stroke: none; stroke-width: 1; stroke-dasharray: none; stroke-linecap: butt; stroke-dashoffset: 0; stroke-linejoin: miter; stroke-miterlimit: 4; fill: rgb(255,255,255); fill-rule: nonzero; opacity: 1; visibility: hidden;" vector-effect="non-scaling-stroke"  x="-600" y="-314" rx="0" ry="0" width="1200" height="628" />
</g>
<g transform="matrix(Infinity NaN NaN Infinity 0 0)" id="eb74a073-395e-4dd7-a748-e91f71680142"  >
</g>
<g transform="matrix(34.19 0 0 34.19 600 314)" id="SvgjsG1881"  >
<path style="stroke: none; stroke-width: 1; stroke-dasharray: none; stroke-linecap: butt; stroke-dashoffset: 0; stroke-linejoin: miter; stroke-miterlimit: 4; fill: rgb(255,255,255); fill-rule: nonzero; opacity: 1;"  transform=" translate(-17.74, -12.48)" d="M 20.72 5.300000000000001 Q 20.919999999999998 5.580000000000001 20.82 5.920000000000001 L 16.6 19.46 Q 16.540000000000003 19.68 16.35 19.82 Q 16.16 19.96 15.920000000000002 19.96 L 14.180000000000001 19.96 Q 13.96 19.96 13.770000000000001 19.82 Q 13.580000000000002 19.68 13.520000000000001 19.48 L 10.520000000000001 10.200000000000001 L 7.540000000000001 19.48 Q 7.460000000000001 19.7 7.280000000000001 19.830000000000002 Q 7.100000000000001 19.960000000000004 6.860000000000001 19.96 L 5.120000000000001 19.96 Q 4.760000000000001 19.96 4.540000000000001 19.68 Q 4.340000000000001 19.34 4.460000000000001 19.04 L 8.98 5.479999999999999 Q 9.040000000000001 5.2799999999999985 9.23 5.139999999999999 Q 9.42 4.999999999999999 9.64 4.999999999999999 L 11.4 4.999999999999999 Q 11.64 4.999999999999999 11.82 5.139999999999999 Q 12 5.2799999999999985 12.08 5.499999999999999 L 15.04 14.7 L 17.84 5.5 Q 17.919999999999998 5.28 18.11 5.14 Q 18.3 4.999999999999999 18.52 5 L 20.14 5 Q 20.52 5 20.72 5.3 z M 3.2 5.5 L 4.34 9.24 Q 4.46 9.58 4.24 9.870000000000001 Q 4.0200000000000005 10.160000000000002 3.66 10.16 L 2.08 10.16 Q 1.84 10.16 1.6500000000000001 10.02 Q 1.4600000000000002 9.879999999999999 1.4000000000000001 9.66 L 0.2400000000000002 5.92 Q 0.12000000000000022 5.58 0.3400000000000002 5.29 Q 0.5600000000000002 5 0.9000000000000002 5 L 2.5200000000000005 5 Q 2.7600000000000007 5 2.9500000000000006 5.14 Q 3.1400000000000006 5.279999999999999 3.2000000000000006 5.5 z M 32.14 14.1 L 35.160000000000004 18.72 Q 35.38 19.08 35.18000000000001 19.439999999999998 Q 35.10000000000001 19.599999999999998 34.93000000000001 19.7 Q 34.760000000000005 19.8 34.580000000000005 19.8 L 32.760000000000005 19.8 Q 32.580000000000005 19.8 32.42 19.71 Q 32.26 19.62 32.18 19.48 L 29.14 14.66 L 25.580000000000002 14.66 L 25.580000000000002 19.1 Q 25.580000000000002 19.380000000000003 25.37 19.59 Q 25.16 19.799999999999997 24.880000000000003 19.8 L 23.360000000000003 19.8 Q 23.080000000000002 19.8 22.870000000000005 19.59 Q 22.660000000000007 19.38 22.660000000000004 19.1 L 22.660000000000004 12.520000000000001 Q 22.660000000000004 12.240000000000002 22.870000000000005 12.030000000000001 Q 23.080000000000005 11.82 23.360000000000003 11.82 L 29.520000000000003 11.82 Q 31.280000000000005 11.82 31.860000000000003 10.82 Q 32.06 10.5 32.06 9.9 Q 32.06 8.96 31.44 8.42 Q 30.8 7.84 29.6 7.84 L 23.36 7.84 Q 23.08 7.84 22.87 7.63 Q 22.660000000000004 7.42 22.66 7.14 L 22.66 5.699999999999999 Q 22.66 5.419999999999999 22.87 5.209999999999999 Q 23.080000000000002 4.999999999999999 23.36 4.999999999999999 L 29.78 4.999999999999999 Q 32.120000000000005 4.999999999999999 33.52 6.319999999999999 Q 34.980000000000004 7.64 34.980000000000004 9.899999999999999 Q 34.980000000000004 11.36 34.34 12.389999999999999 Q 33.7 13.419999999999998 32.480000000000004 13.959999999999999 z" stroke-linecap="round" />
</g>
</svg>